<mxfile host="app.diagrams.net" agent="Mozilla/5.0 (Macintosh; Intel Mac OS X 10_15_7) AppleWebKit/605.1.15 (KHTML, like Gecko) Version/16.6 Safari/605.1.15" version="26.2.9">
  <diagram id="R2lEEEUBdFMjLlhIrx00" name="Page-1">
    <mxGraphModel dx="1353" dy="1462" grid="1" gridSize="10" guides="1" tooltips="1" connect="1" arrows="1" fold="1" page="1" pageScale="1" pageWidth="850" pageHeight="1100" math="0" shadow="0" extFonts="Permanent Marker^https://fonts.googleapis.com/css?family=Permanent+Marker">
      <root>
        <mxCell id="0" />
        <mxCell id="1" parent="0" />
        <mxCell id="tJkLo8AYyS4Hzj5Davj_-47" style="edgeStyle=orthogonalEdgeStyle;rounded=0;orthogonalLoop=1;jettySize=auto;html=1;fillColor=#f8cecc;strokeColor=#b85450;" parent="1" source="tJkLo8AYyS4Hzj5Davj_-1" target="tJkLo8AYyS4Hzj5Davj_-44" edge="1">
          <mxGeometry relative="1" as="geometry">
            <Array as="points">
              <mxPoint x="-70" y="160" />
            </Array>
          </mxGeometry>
        </mxCell>
        <mxCell id="2iOGKmFltwEdweQKYYfo-11" value="puo implementare" style="edgeLabel;html=1;align=center;verticalAlign=middle;resizable=0;points=[];" parent="tJkLo8AYyS4Hzj5Davj_-47" vertex="1" connectable="0">
          <mxGeometry x="0.1451" y="-4" relative="1" as="geometry">
            <mxPoint x="14" y="-4" as="offset" />
          </mxGeometry>
        </mxCell>
        <mxCell id="tJkLo8AYyS4Hzj5Davj_-56" style="edgeStyle=orthogonalEdgeStyle;rounded=0;orthogonalLoop=1;jettySize=auto;html=1;entryX=0;entryY=0.5;entryDx=0;entryDy=0;" parent="1" source="tJkLo8AYyS4Hzj5Davj_-1" target="tJkLo8AYyS4Hzj5Davj_-19" edge="1">
          <mxGeometry relative="1" as="geometry">
            <Array as="points">
              <mxPoint x="-70" y="860" />
            </Array>
          </mxGeometry>
        </mxCell>
        <mxCell id="tJkLo8AYyS4Hzj5Davj_-57" style="edgeStyle=orthogonalEdgeStyle;rounded=0;orthogonalLoop=1;jettySize=auto;html=1;fillColor=#f8cecc;strokeColor=#b85450;entryX=0;entryY=0.5;entryDx=0;entryDy=0;" parent="1" source="tJkLo8AYyS4Hzj5Davj_-1" target="2iOGKmFltwEdweQKYYfo-23" edge="1">
          <mxGeometry relative="1" as="geometry">
            <Array as="points">
              <mxPoint x="-50" y="250" />
            </Array>
            <mxPoint x="200" y="230" as="targetPoint" />
          </mxGeometry>
        </mxCell>
        <mxCell id="2iOGKmFltwEdweQKYYfo-10" value="ha una tipizzazione" style="edgeLabel;html=1;align=center;verticalAlign=middle;resizable=0;points=[];" parent="tJkLo8AYyS4Hzj5Davj_-57" vertex="1" connectable="0">
          <mxGeometry x="-0.2218" y="1" relative="1" as="geometry">
            <mxPoint x="18" y="1" as="offset" />
          </mxGeometry>
        </mxCell>
        <mxCell id="tJkLo8AYyS4Hzj5Davj_-58" style="edgeStyle=orthogonalEdgeStyle;rounded=0;orthogonalLoop=1;jettySize=auto;html=1;entryX=1;entryY=0.5;entryDx=0;entryDy=0;fillColor=#d5e8d4;strokeColor=#82b366;" parent="1" source="tJkLo8AYyS4Hzj5Davj_-1" target="tJkLo8AYyS4Hzj5Davj_-33" edge="1">
          <mxGeometry relative="1" as="geometry" />
        </mxCell>
        <mxCell id="2iOGKmFltwEdweQKYYfo-8" value="utilizza" style="edgeLabel;html=1;align=center;verticalAlign=middle;resizable=0;points=[];" parent="tJkLo8AYyS4Hzj5Davj_-58" vertex="1" connectable="0">
          <mxGeometry x="0.1848" y="-2" relative="1" as="geometry">
            <mxPoint x="-12" y="1" as="offset" />
          </mxGeometry>
        </mxCell>
        <mxCell id="tJkLo8AYyS4Hzj5Davj_-59" style="edgeStyle=orthogonalEdgeStyle;rounded=0;orthogonalLoop=1;jettySize=auto;html=1;entryX=1;entryY=0.5;entryDx=0;entryDy=0;fillColor=#d5e8d4;strokeColor=#82b366;" parent="1" source="tJkLo8AYyS4Hzj5Davj_-1" target="tJkLo8AYyS4Hzj5Davj_-34" edge="1">
          <mxGeometry relative="1" as="geometry">
            <Array as="points">
              <mxPoint x="-130" y="-10" />
            </Array>
          </mxGeometry>
        </mxCell>
        <mxCell id="2iOGKmFltwEdweQKYYfo-9" value="Utilizza" style="edgeLabel;html=1;align=center;verticalAlign=middle;resizable=0;points=[];" parent="tJkLo8AYyS4Hzj5Davj_-59" vertex="1" connectable="0">
          <mxGeometry x="0.5016" relative="1" as="geometry">
            <mxPoint y="-6" as="offset" />
          </mxGeometry>
        </mxCell>
        <mxCell id="tJkLo8AYyS4Hzj5Davj_-67" style="edgeStyle=orthogonalEdgeStyle;rounded=0;orthogonalLoop=1;jettySize=auto;html=1;entryX=1;entryY=0.5;entryDx=0;entryDy=0;" parent="1" source="tJkLo8AYyS4Hzj5Davj_-1" target="tJkLo8AYyS4Hzj5Davj_-60" edge="1">
          <mxGeometry relative="1" as="geometry">
            <mxPoint x="-110" y="380" as="targetPoint" />
            <Array as="points">
              <mxPoint x="-70" y="390" />
            </Array>
          </mxGeometry>
        </mxCell>
        <mxCell id="tJkLo8AYyS4Hzj5Davj_-74" style="edgeStyle=orthogonalEdgeStyle;rounded=0;orthogonalLoop=1;jettySize=auto;html=1;" parent="1" source="tJkLo8AYyS4Hzj5Davj_-1" target="tJkLo8AYyS4Hzj5Davj_-72" edge="1">
          <mxGeometry relative="1" as="geometry" />
        </mxCell>
        <mxCell id="tJkLo8AYyS4Hzj5Davj_-75" style="edgeStyle=orthogonalEdgeStyle;rounded=0;orthogonalLoop=1;jettySize=auto;html=1;" parent="1" source="tJkLo8AYyS4Hzj5Davj_-1" target="tJkLo8AYyS4Hzj5Davj_-73" edge="1">
          <mxGeometry relative="1" as="geometry">
            <Array as="points">
              <mxPoint x="300" y="290" />
            </Array>
          </mxGeometry>
        </mxCell>
        <mxCell id="OAyQKX8aBzaskmU8yS5l-25" style="edgeStyle=orthogonalEdgeStyle;rounded=0;orthogonalLoop=1;jettySize=auto;html=1;entryX=0.5;entryY=0;entryDx=0;entryDy=0;" parent="1" source="tJkLo8AYyS4Hzj5Davj_-1" target="OAyQKX8aBzaskmU8yS5l-26" edge="1">
          <mxGeometry relative="1" as="geometry">
            <mxPoint x="-70" y="1033" as="targetPoint" />
          </mxGeometry>
        </mxCell>
        <mxCell id="2iOGKmFltwEdweQKYYfo-17" style="edgeStyle=orthogonalEdgeStyle;rounded=0;orthogonalLoop=1;jettySize=auto;html=1;entryX=0.25;entryY=0;entryDx=0;entryDy=0;fillColor=#d5e8d4;strokeColor=#82b366;endArrow=none;endFill=1;startFill=1;startArrow=classic;exitX=1;exitY=0.5;exitDx=0;exitDy=0;" parent="1" source="2iOGKmFltwEdweQKYYfo-49" target="OAyQKX8aBzaskmU8yS5l-6" edge="1">
          <mxGeometry relative="1" as="geometry">
            <mxPoint x="140" y="-180" as="sourcePoint" />
            <Array as="points">
              <mxPoint x="590" y="-230" />
            </Array>
          </mxGeometry>
        </mxCell>
        <mxCell id="2iOGKmFltwEdweQKYYfo-18" value="permette lo sviluppo di" style="edgeLabel;html=1;align=center;verticalAlign=middle;resizable=0;points=[];" parent="2iOGKmFltwEdweQKYYfo-17" vertex="1" connectable="0">
          <mxGeometry x="0.2522" relative="1" as="geometry">
            <mxPoint as="offset" />
          </mxGeometry>
        </mxCell>
        <mxCell id="2iOGKmFltwEdweQKYYfo-26" style="edgeStyle=orthogonalEdgeStyle;rounded=0;orthogonalLoop=1;jettySize=auto;html=1;entryX=0;entryY=0.5;entryDx=0;entryDy=0;fillColor=#f8cecc;strokeColor=#b85450;" parent="1" source="tJkLo8AYyS4Hzj5Davj_-1" target="2iOGKmFltwEdweQKYYfo-22" edge="1">
          <mxGeometry relative="1" as="geometry">
            <Array as="points">
              <mxPoint x="-50" y="180" />
            </Array>
          </mxGeometry>
        </mxCell>
        <mxCell id="2iOGKmFltwEdweQKYYfo-27" value="ha una tipizzazione" style="edgeLabel;html=1;align=center;verticalAlign=middle;resizable=0;points=[];" parent="2iOGKmFltwEdweQKYYfo-26" vertex="1" connectable="0">
          <mxGeometry x="-0.0507" y="-3" relative="1" as="geometry">
            <mxPoint x="26" y="-3" as="offset" />
          </mxGeometry>
        </mxCell>
        <mxCell id="2iOGKmFltwEdweQKYYfo-66" style="edgeStyle=orthogonalEdgeStyle;rounded=0;orthogonalLoop=1;jettySize=auto;html=1;entryX=1;entryY=0.5;entryDx=0;entryDy=0;fillColor=#d5e8d4;strokeColor=#82b366;endArrow=none;startFill=1;startArrow=classic;exitX=0;exitY=0.5;exitDx=0;exitDy=0;" parent="1" source="2iOGKmFltwEdweQKYYfo-49" target="2iOGKmFltwEdweQKYYfo-65" edge="1">
          <mxGeometry relative="1" as="geometry">
            <mxPoint x="-110" y="-130" as="sourcePoint" />
            <Array as="points">
              <mxPoint x="-430" y="-230" />
              <mxPoint x="-430" y="120" />
            </Array>
          </mxGeometry>
        </mxCell>
        <mxCell id="2iOGKmFltwEdweQKYYfo-67" value="scritta in" style="edgeLabel;html=1;align=center;verticalAlign=middle;resizable=0;points=[];" parent="2iOGKmFltwEdweQKYYfo-66" vertex="1" connectable="0">
          <mxGeometry x="0.3494" y="1" relative="1" as="geometry">
            <mxPoint x="3" y="-1" as="offset" />
          </mxGeometry>
        </mxCell>
        <mxCell id="tJkLo8AYyS4Hzj5Davj_-1" value="Programming Language" style="rounded=1;whiteSpace=wrap;html=1;fillColor=#dae8fc;strokeColor=#6c8ebf;" parent="1" vertex="1">
          <mxGeometry x="-130" y="255" width="120" height="55" as="geometry" />
        </mxCell>
        <mxCell id="OAyQKX8aBzaskmU8yS5l-20" style="edgeStyle=orthogonalEdgeStyle;rounded=0;orthogonalLoop=1;jettySize=auto;html=1;" parent="1" source="tJkLo8AYyS4Hzj5Davj_-4" target="tJkLo8AYyS4Hzj5Davj_-15" edge="1">
          <mxGeometry relative="1" as="geometry" />
        </mxCell>
        <mxCell id="OAyQKX8aBzaskmU8yS5l-21" style="edgeStyle=orthogonalEdgeStyle;rounded=0;orthogonalLoop=1;jettySize=auto;html=1;entryX=0;entryY=0.5;entryDx=0;entryDy=0;" parent="1" source="tJkLo8AYyS4Hzj5Davj_-4" target="tJkLo8AYyS4Hzj5Davj_-42" edge="1">
          <mxGeometry relative="1" as="geometry" />
        </mxCell>
        <mxCell id="OAyQKX8aBzaskmU8yS5l-23" style="edgeStyle=orthogonalEdgeStyle;rounded=0;orthogonalLoop=1;jettySize=auto;html=1;entryX=0;entryY=0.5;entryDx=0;entryDy=0;" parent="1" source="tJkLo8AYyS4Hzj5Davj_-4" target="tJkLo8AYyS4Hzj5Davj_-5" edge="1">
          <mxGeometry relative="1" as="geometry" />
        </mxCell>
        <mxCell id="tJkLo8AYyS4Hzj5Davj_-4" value="L. Imperativo" style="rounded=1;whiteSpace=wrap;html=1;fillColor=#dae8fc;strokeColor=#6c8ebf;" parent="1" vertex="1">
          <mxGeometry x="-20" y="503" width="130" height="60" as="geometry" />
        </mxCell>
        <mxCell id="tJkLo8AYyS4Hzj5Davj_-5" value="L. ad oggetti" style="rounded=1;whiteSpace=wrap;html=1;fillColor=#dae8fc;strokeColor=#6c8ebf;" parent="1" vertex="1">
          <mxGeometry x="165" y="665" width="130" height="60" as="geometry" />
        </mxCell>
        <mxCell id="tJkLo8AYyS4Hzj5Davj_-15" value="L. Strutturato" style="rounded=1;whiteSpace=wrap;html=1;fillColor=#dae8fc;strokeColor=#6c8ebf;" parent="1" vertex="1">
          <mxGeometry x="165" y="548" width="130" height="60" as="geometry" />
        </mxCell>
        <mxCell id="tJkLo8AYyS4Hzj5Davj_-18" value="L. Funzionale" style="rounded=1;whiteSpace=wrap;html=1;fillColor=#dae8fc;strokeColor=#6c8ebf;" parent="1" vertex="1">
          <mxGeometry x="165" y="900" width="130" height="60" as="geometry" />
        </mxCell>
        <mxCell id="tJkLo8AYyS4Hzj5Davj_-53" style="edgeStyle=orthogonalEdgeStyle;rounded=0;orthogonalLoop=1;jettySize=auto;html=1;" parent="1" source="tJkLo8AYyS4Hzj5Davj_-19" target="tJkLo8AYyS4Hzj5Davj_-29" edge="1">
          <mxGeometry relative="1" as="geometry" />
        </mxCell>
        <mxCell id="tJkLo8AYyS4Hzj5Davj_-54" style="edgeStyle=orthogonalEdgeStyle;rounded=0;orthogonalLoop=1;jettySize=auto;html=1;entryX=0;entryY=0.5;entryDx=0;entryDy=0;" parent="1" source="tJkLo8AYyS4Hzj5Davj_-19" target="tJkLo8AYyS4Hzj5Davj_-18" edge="1">
          <mxGeometry relative="1" as="geometry" />
        </mxCell>
        <mxCell id="tJkLo8AYyS4Hzj5Davj_-19" value="L. Dichiarativi" style="rounded=1;whiteSpace=wrap;html=1;fillColor=#dae8fc;strokeColor=#6c8ebf;" parent="1" vertex="1">
          <mxGeometry x="-20" y="830" width="130" height="60" as="geometry" />
        </mxCell>
        <mxCell id="2iOGKmFltwEdweQKYYfo-24" style="edgeStyle=orthogonalEdgeStyle;rounded=0;orthogonalLoop=1;jettySize=auto;html=1;entryX=1;entryY=0.5;entryDx=0;entryDy=0;" parent="1" source="tJkLo8AYyS4Hzj5Davj_-24" target="2iOGKmFltwEdweQKYYfo-22" edge="1">
          <mxGeometry relative="1" as="geometry" />
        </mxCell>
        <mxCell id="2iOGKmFltwEdweQKYYfo-25" style="edgeStyle=orthogonalEdgeStyle;rounded=0;orthogonalLoop=1;jettySize=auto;html=1;entryX=1;entryY=0.5;entryDx=0;entryDy=0;" parent="1" source="tJkLo8AYyS4Hzj5Davj_-24" target="2iOGKmFltwEdweQKYYfo-23" edge="1">
          <mxGeometry relative="1" as="geometry" />
        </mxCell>
        <mxCell id="tJkLo8AYyS4Hzj5Davj_-24" value="Tipizzazione" style="rounded=1;whiteSpace=wrap;html=1;fillColor=#f8cecc;strokeColor=#b85450;" parent="1" vertex="1">
          <mxGeometry x="365" y="190" width="120" height="60" as="geometry" />
        </mxCell>
        <mxCell id="tJkLo8AYyS4Hzj5Davj_-26" value="• Fortemente tipizzata&lt;div&gt;• Debolmente tipizzata&lt;/div&gt;" style="text;html=1;align=left;verticalAlign=middle;whiteSpace=wrap;rounded=0;" parent="1" vertex="1">
          <mxGeometry x="310" y="300" width="140" height="30" as="geometry" />
        </mxCell>
        <mxCell id="tJkLo8AYyS4Hzj5Davj_-29" value="Linguaggio Logico" style="rounded=1;whiteSpace=wrap;html=1;fillColor=#dae8fc;strokeColor=#6c8ebf;" parent="1" vertex="1">
          <mxGeometry x="165" y="783" width="130" height="60" as="geometry" />
        </mxCell>
        <mxCell id="tJkLo8AYyS4Hzj5Davj_-33" value="Interprete" style="rounded=1;whiteSpace=wrap;html=1;fillColor=#dae8fc;strokeColor=#6c8ebf;" parent="1" vertex="1">
          <mxGeometry x="-290" y="30" width="120" height="60" as="geometry" />
        </mxCell>
        <mxCell id="OAyQKX8aBzaskmU8yS5l-9" style="edgeStyle=orthogonalEdgeStyle;rounded=0;orthogonalLoop=1;jettySize=auto;html=1;entryX=0.5;entryY=0;entryDx=0;entryDy=0;startArrow=none;startFill=0;endArrow=classic;fillColor=#d5e8d4;strokeColor=#82b366;endFill=1;" parent="1" source="tJkLo8AYyS4Hzj5Davj_-34" target="OAyQKX8aBzaskmU8yS5l-7" edge="1">
          <mxGeometry relative="1" as="geometry" />
        </mxCell>
        <mxCell id="2iOGKmFltwEdweQKYYfo-13" value="Parte di (non per forza tutti)&amp;nbsp;&lt;div&gt;/&lt;/div&gt;&lt;div&gt;contiene&lt;/div&gt;" style="edgeLabel;html=1;align=center;verticalAlign=middle;resizable=0;points=[];" parent="OAyQKX8aBzaskmU8yS5l-9" vertex="1" connectable="0">
          <mxGeometry x="0.8996" y="-1" relative="1" as="geometry">
            <mxPoint as="offset" />
          </mxGeometry>
        </mxCell>
        <mxCell id="OAyQKX8aBzaskmU8yS5l-11" style="edgeStyle=orthogonalEdgeStyle;rounded=0;orthogonalLoop=1;jettySize=auto;html=1;entryX=1;entryY=0.5;entryDx=0;entryDy=0;fillColor=#f8cecc;strokeColor=#b85450;" parent="1" source="tJkLo8AYyS4Hzj5Davj_-34" target="OAyQKX8aBzaskmU8yS5l-5" edge="1">
          <mxGeometry relative="1" as="geometry">
            <mxPoint x="842.3529411764706" y="370" as="targetPoint" />
            <Array as="points">
              <mxPoint x="840" y="-30" />
              <mxPoint x="840" y="380" />
            </Array>
          </mxGeometry>
        </mxCell>
        <mxCell id="2iOGKmFltwEdweQKYYfo-5" style="edgeStyle=orthogonalEdgeStyle;rounded=0;orthogonalLoop=1;jettySize=auto;html=1;entryX=0.5;entryY=0;entryDx=0;entryDy=0;fillColor=#d5e8d4;strokeColor=#82b366;" parent="1" source="tJkLo8AYyS4Hzj5Davj_-34" target="OAyQKX8aBzaskmU8yS5l-3" edge="1">
          <mxGeometry relative="1" as="geometry">
            <Array as="points">
              <mxPoint x="500" y="-20" />
            </Array>
          </mxGeometry>
        </mxCell>
        <mxCell id="2iOGKmFltwEdweQKYYfo-6" value="Traduce in -&amp;gt;&amp;nbsp;&lt;div&gt;/&lt;div&gt;Traducibile da &amp;lt;-&amp;nbsp;&lt;div&gt;&lt;br&gt;&lt;/div&gt;&lt;/div&gt;&lt;/div&gt;" style="edgeLabel;html=1;align=center;verticalAlign=middle;resizable=0;points=[];" parent="2iOGKmFltwEdweQKYYfo-5" vertex="1" connectable="0">
          <mxGeometry x="0.6165" y="2" relative="1" as="geometry">
            <mxPoint as="offset" />
          </mxGeometry>
        </mxCell>
        <mxCell id="2iOGKmFltwEdweQKYYfo-19" style="edgeStyle=orthogonalEdgeStyle;rounded=0;orthogonalLoop=1;jettySize=auto;html=1;entryX=0.25;entryY=0;entryDx=0;entryDy=0;fillColor=#d5e8d4;strokeColor=#82b366;" parent="1" source="tJkLo8AYyS4Hzj5Davj_-34" target="tJkLo8AYyS4Hzj5Davj_-1" edge="1">
          <mxGeometry relative="1" as="geometry">
            <Array as="points">
              <mxPoint x="-100" />
            </Array>
          </mxGeometry>
        </mxCell>
        <mxCell id="2iOGKmFltwEdweQKYYfo-20" value="&lt;font style=&quot;font-size: 6px;&quot;&gt;Traduce da&lt;/font&gt;" style="edgeLabel;html=1;align=center;verticalAlign=middle;resizable=0;points=[];" parent="2iOGKmFltwEdweQKYYfo-19" vertex="1" connectable="0">
          <mxGeometry x="-0.0872" relative="1" as="geometry">
            <mxPoint x="-2" y="8" as="offset" />
          </mxGeometry>
        </mxCell>
        <mxCell id="tJkLo8AYyS4Hzj5Davj_-34" value="Compilatore" style="rounded=1;whiteSpace=wrap;html=1;fillColor=#dae8fc;strokeColor=#6c8ebf;" parent="1" vertex="1">
          <mxGeometry x="-290" y="-40" width="120" height="60" as="geometry" />
        </mxCell>
        <mxCell id="tJkLo8AYyS4Hzj5Davj_-63" style="edgeStyle=orthogonalEdgeStyle;rounded=0;orthogonalLoop=1;jettySize=auto;html=1;entryX=1;entryY=0.5;entryDx=0;entryDy=0;" parent="1" source="tJkLo8AYyS4Hzj5Davj_-36" target="tJkLo8AYyS4Hzj5Davj_-61" edge="1">
          <mxGeometry relative="1" as="geometry" />
        </mxCell>
        <mxCell id="tJkLo8AYyS4Hzj5Davj_-36" value="PL Compilato" style="rounded=1;whiteSpace=wrap;html=1;fillColor=#e1d5e7;strokeColor=#9673a6;" parent="1" vertex="1">
          <mxGeometry x="-330" y="520" width="120" height="60" as="geometry" />
        </mxCell>
        <mxCell id="tJkLo8AYyS4Hzj5Davj_-42" value="L. Procedurale" style="rounded=1;whiteSpace=wrap;html=1;fillColor=#dae8fc;strokeColor=#6c8ebf;" parent="1" vertex="1">
          <mxGeometry x="165" y="430" width="130" height="60" as="geometry" />
        </mxCell>
        <mxCell id="tJkLo8AYyS4Hzj5Davj_-44" value="Paradigma di programmazione" style="rounded=1;whiteSpace=wrap;html=1;fillColor=#f8cecc;strokeColor=#b85450;" parent="1" vertex="1">
          <mxGeometry x="10" y="80" width="120" height="60" as="geometry" />
        </mxCell>
        <mxCell id="tJkLo8AYyS4Hzj5Davj_-45" value="&lt;ul&gt;&lt;li&gt;Programmazione ad eventi&lt;/li&gt;&lt;li&gt;Programmazione ad oggetti&lt;/li&gt;&lt;li&gt;Programmazione modulare&lt;/li&gt;&lt;li&gt;Programmazione ad aspetti&lt;/li&gt;&lt;li&gt;Programmazione strutturata&lt;/li&gt;&lt;li&gt;ecc&lt;/li&gt;&lt;/ul&gt;" style="text;html=1;align=left;verticalAlign=middle;whiteSpace=wrap;rounded=0;" parent="1" vertex="1">
          <mxGeometry x="115" y="70" width="230" height="70" as="geometry" />
        </mxCell>
        <mxCell id="tJkLo8AYyS4Hzj5Davj_-55" style="edgeStyle=orthogonalEdgeStyle;rounded=0;orthogonalLoop=1;jettySize=auto;html=1;entryX=0;entryY=0.5;entryDx=0;entryDy=0;exitX=0.5;exitY=1;exitDx=0;exitDy=0;" parent="1" source="tJkLo8AYyS4Hzj5Davj_-1" target="tJkLo8AYyS4Hzj5Davj_-4" edge="1">
          <mxGeometry relative="1" as="geometry">
            <Array as="points">
              <mxPoint x="-70" y="310" />
              <mxPoint x="-70" y="533" />
            </Array>
            <mxPoint x="-130.00142857142853" y="294.97" as="sourcePoint" />
            <mxPoint x="-80.03" y="517.97" as="targetPoint" />
          </mxGeometry>
        </mxCell>
        <mxCell id="tJkLo8AYyS4Hzj5Davj_-62" style="edgeStyle=orthogonalEdgeStyle;rounded=0;orthogonalLoop=1;jettySize=auto;html=1;entryX=1;entryY=0.5;entryDx=0;entryDy=0;" parent="1" source="tJkLo8AYyS4Hzj5Davj_-60" target="tJkLo8AYyS4Hzj5Davj_-61" edge="1">
          <mxGeometry relative="1" as="geometry" />
        </mxCell>
        <mxCell id="tJkLo8AYyS4Hzj5Davj_-60" value="PL Interpretato" style="rounded=1;whiteSpace=wrap;html=1;fillColor=#e1d5e7;strokeColor=#9673a6;" parent="1" vertex="1">
          <mxGeometry x="-330" y="360" width="120" height="60" as="geometry" />
        </mxCell>
        <mxCell id="OAyQKX8aBzaskmU8yS5l-2" value="" style="edgeStyle=orthogonalEdgeStyle;rounded=0;orthogonalLoop=1;jettySize=auto;html=1;" parent="1" source="tJkLo8AYyS4Hzj5Davj_-61" target="OAyQKX8aBzaskmU8yS5l-1" edge="1">
          <mxGeometry relative="1" as="geometry" />
        </mxCell>
        <mxCell id="tJkLo8AYyS4Hzj5Davj_-61" value="PL Ibrido" style="rounded=1;whiteSpace=wrap;html=1;fillColor=#e1d5e7;strokeColor=#9673a6;" parent="1" vertex="1">
          <mxGeometry x="-550" y="440" width="120" height="60" as="geometry" />
        </mxCell>
        <mxCell id="tJkLo8AYyS4Hzj5Davj_-64" value="&lt;b&gt;Blank node:&lt;/b&gt; linguaggio che ha la proprietà compilatore" style="text;html=1;align=left;verticalAlign=middle;whiteSpace=wrap;rounded=0;" parent="1" vertex="1">
          <mxGeometry x="-330" y="430" width="120" height="30" as="geometry" />
        </mxCell>
        <mxCell id="tJkLo8AYyS4Hzj5Davj_-65" value="&lt;b&gt;Blank node:&lt;/b&gt; linguaggio che ha la proprietà Interprete" style="text;html=1;align=left;verticalAlign=middle;whiteSpace=wrap;rounded=0;" parent="1" vertex="1">
          <mxGeometry x="-330" y="590" width="120" height="30" as="geometry" />
        </mxCell>
        <mxCell id="tJkLo8AYyS4Hzj5Davj_-66" value="&lt;b&gt;Blank node:&lt;/b&gt; linguaggio che ha la proprietà Interprete e compilatore" style="text;html=1;align=left;verticalAlign=middle;whiteSpace=wrap;rounded=0;" parent="1" vertex="1">
          <mxGeometry x="-550" y="520" width="120" height="30" as="geometry" />
        </mxCell>
        <mxCell id="tJkLo8AYyS4Hzj5Davj_-68" style="edgeStyle=orthogonalEdgeStyle;rounded=0;orthogonalLoop=1;jettySize=auto;html=1;entryX=1;entryY=0.5;entryDx=0;entryDy=0;" parent="1" source="tJkLo8AYyS4Hzj5Davj_-1" target="tJkLo8AYyS4Hzj5Davj_-36" edge="1">
          <mxGeometry relative="1" as="geometry">
            <mxPoint x="-207" y="556" as="targetPoint" />
            <Array as="points">
              <mxPoint x="-70" y="550" />
            </Array>
          </mxGeometry>
        </mxCell>
        <mxCell id="tJkLo8AYyS4Hzj5Davj_-72" value="Alto livello" style="rounded=1;whiteSpace=wrap;html=1;fillColor=#e1d5e7;strokeColor=#9673a6;" parent="1" vertex="1">
          <mxGeometry x="-5" y="360" width="120" height="60" as="geometry" />
        </mxCell>
        <mxCell id="OAyQKX8aBzaskmU8yS5l-4" value="" style="edgeStyle=orthogonalEdgeStyle;rounded=0;orthogonalLoop=1;jettySize=auto;html=1;" parent="1" source="tJkLo8AYyS4Hzj5Davj_-73" target="OAyQKX8aBzaskmU8yS5l-3" edge="1">
          <mxGeometry relative="1" as="geometry" />
        </mxCell>
        <mxCell id="tJkLo8AYyS4Hzj5Davj_-73" value="Basso livello" style="rounded=1;whiteSpace=wrap;html=1;fillColor=#dae8fc;strokeColor=#6c8ebf;" parent="1" vertex="1">
          <mxGeometry x="240" y="350" width="120" height="60" as="geometry" />
        </mxCell>
        <mxCell id="tJkLo8AYyS4Hzj5Davj_-76" value="&lt;b&gt;Blanck node&lt;/b&gt;: non a basso livello" style="text;html=1;align=center;verticalAlign=middle;whiteSpace=wrap;rounded=0;" parent="1" vertex="1">
          <mxGeometry x="-30" y="420" width="170" height="30" as="geometry" />
        </mxCell>
        <mxCell id="OAyQKX8aBzaskmU8yS5l-1" value="Semi-compilato" style="rounded=1;whiteSpace=wrap;html=1;fillColor=#e1d5e7;strokeColor=#9673a6;" parent="1" vertex="1">
          <mxGeometry x="-750" y="440" width="120" height="60" as="geometry" />
        </mxCell>
        <mxCell id="OAyQKX8aBzaskmU8yS5l-8" style="edgeStyle=orthogonalEdgeStyle;rounded=0;orthogonalLoop=1;jettySize=auto;html=1;fillColor=#d5e8d4;strokeColor=#82b366;" parent="1" source="OAyQKX8aBzaskmU8yS5l-3" target="OAyQKX8aBzaskmU8yS5l-5" edge="1">
          <mxGeometry relative="1" as="geometry" />
        </mxCell>
        <mxCell id="2iOGKmFltwEdweQKYYfo-12" value="eseguibile da" style="edgeLabel;html=1;align=center;verticalAlign=middle;resizable=0;points=[];" parent="OAyQKX8aBzaskmU8yS5l-8" vertex="1" connectable="0">
          <mxGeometry x="-0.251" y="-1" relative="1" as="geometry">
            <mxPoint x="7" y="-1" as="offset" />
          </mxGeometry>
        </mxCell>
        <mxCell id="OAyQKX8aBzaskmU8yS5l-3" value="linguaggio macchina" style="rounded=1;whiteSpace=wrap;html=1;fillColor=#dae8fc;strokeColor=#6c8ebf;" parent="1" vertex="1">
          <mxGeometry x="440" y="350" width="120" height="60" as="geometry" />
        </mxCell>
        <mxCell id="OAyQKX8aBzaskmU8yS5l-5" value="Architettura" style="rounded=0;whiteSpace=wrap;html=1;fillColor=#f8cecc;strokeColor=#b85450;" parent="1" vertex="1">
          <mxGeometry x="700" y="350" width="120" height="60" as="geometry" />
        </mxCell>
        <mxCell id="OAyQKX8aBzaskmU8yS5l-6" value="Ambiente di sviluppo integrato" style="rounded=0;whiteSpace=wrap;html=1;fillColor=#dae8fc;strokeColor=#6c8ebf;" parent="1" vertex="1">
          <mxGeometry x="560" y="170" width="120" height="60" as="geometry" />
        </mxCell>
        <mxCell id="OAyQKX8aBzaskmU8yS5l-10" style="edgeStyle=orthogonalEdgeStyle;rounded=0;orthogonalLoop=1;jettySize=auto;html=1;fillColor=#f8cecc;strokeColor=#b85450;" parent="1" source="OAyQKX8aBzaskmU8yS5l-7" target="OAyQKX8aBzaskmU8yS5l-5" edge="1">
          <mxGeometry relative="1" as="geometry" />
        </mxCell>
        <mxCell id="2iOGKmFltwEdweQKYYfo-7" value="Per" style="edgeLabel;html=1;align=center;verticalAlign=middle;resizable=0;points=[];" parent="OAyQKX8aBzaskmU8yS5l-10" vertex="1" connectable="0">
          <mxGeometry x="-0.5182" y="-1" relative="1" as="geometry">
            <mxPoint as="offset" />
          </mxGeometry>
        </mxCell>
        <mxCell id="2iOGKmFltwEdweQKYYfo-15" style="edgeStyle=orthogonalEdgeStyle;rounded=0;orthogonalLoop=1;jettySize=auto;html=1;entryX=0.5;entryY=0;entryDx=0;entryDy=0;fillColor=#d5e8d4;strokeColor=#82b366;" parent="1" source="OAyQKX8aBzaskmU8yS5l-7" target="OAyQKX8aBzaskmU8yS5l-6" edge="1">
          <mxGeometry relative="1" as="geometry" />
        </mxCell>
        <mxCell id="2iOGKmFltwEdweQKYYfo-16" value="Parte di / contiene" style="edgeLabel;html=1;align=center;verticalAlign=middle;resizable=0;points=[];" parent="2iOGKmFltwEdweQKYYfo-15" vertex="1" connectable="0">
          <mxGeometry x="-0.3952" y="3" relative="1" as="geometry">
            <mxPoint x="-14" y="-3" as="offset" />
          </mxGeometry>
        </mxCell>
        <mxCell id="OAyQKX8aBzaskmU8yS5l-7" value="Ambiente di esecuzione" style="rounded=0;whiteSpace=wrap;html=1;fillColor=#dae8fc;strokeColor=#6c8ebf;" parent="1" vertex="1">
          <mxGeometry x="700" y="70" width="120" height="60" as="geometry" />
        </mxCell>
        <mxCell id="OAyQKX8aBzaskmU8yS5l-26" value="Multiparadigma" style="rounded=0;whiteSpace=wrap;html=1;fillColor=#e1d5e7;strokeColor=#9673a6;" parent="1" vertex="1">
          <mxGeometry x="-130" y="940" width="120" height="60" as="geometry" />
        </mxCell>
        <mxCell id="2iOGKmFltwEdweQKYYfo-1" value="" style="endArrow=classic;html=1;rounded=0;exitX=0.586;exitY=1.001;exitDx=0;exitDy=0;exitPerimeter=0;" parent="1" source="tJkLo8AYyS4Hzj5Davj_-1" edge="1">
          <mxGeometry width="50" height="50" relative="1" as="geometry">
            <mxPoint x="-40" y="380" as="sourcePoint" />
            <mxPoint x="-30" y="311" as="targetPoint" />
            <Array as="points">
              <mxPoint x="-60" y="330" />
              <mxPoint x="-40" y="330" />
              <mxPoint x="-30" y="330" />
            </Array>
          </mxGeometry>
        </mxCell>
        <mxCell id="2iOGKmFltwEdweQKYYfo-2" value="" style="endArrow=classic;html=1;rounded=0;exitX=0.586;exitY=1.001;exitDx=0;exitDy=0;exitPerimeter=0;fillColor=#f8cecc;strokeColor=#b85450;" parent="1" edge="1">
          <mxGeometry width="50" height="50" relative="1" as="geometry">
            <mxPoint x="-60" y="330" as="sourcePoint" />
            <mxPoint x="-30" y="331" as="targetPoint" />
            <Array as="points">
              <mxPoint x="-60" y="350" />
              <mxPoint x="-40" y="350" />
              <mxPoint x="-30" y="350" />
            </Array>
          </mxGeometry>
        </mxCell>
        <mxCell id="2iOGKmFltwEdweQKYYfo-3" value="&lt;font style=&quot;font-size: 5px;&quot;&gt;deriva direttamente (storicamente)&lt;/font&gt;" style="text;html=1;align=center;verticalAlign=middle;resizable=0;points=[];autosize=1;strokeColor=none;fillColor=none;" parent="1" vertex="1">
          <mxGeometry x="-40" y="310" width="100" height="30" as="geometry" />
        </mxCell>
        <mxCell id="2iOGKmFltwEdweQKYYfo-4" value="&lt;font style=&quot;font-size: 5px;&quot;&gt;deriva (storicamente)&lt;/font&gt;" style="text;html=1;align=center;verticalAlign=middle;resizable=0;points=[];autosize=1;strokeColor=none;fillColor=none;" parent="1" vertex="1">
          <mxGeometry x="-40" y="330" width="70" height="30" as="geometry" />
        </mxCell>
        <mxCell id="2iOGKmFltwEdweQKYYfo-22" value="Tipizzazione in esecuzione" style="rounded=1;whiteSpace=wrap;html=1;fillColor=#f8cecc;strokeColor=#b85450;" parent="1" vertex="1">
          <mxGeometry x="200" y="150" width="120" height="60" as="geometry" />
        </mxCell>
        <mxCell id="2iOGKmFltwEdweQKYYfo-23" value="Tipizzazione in compilazione" style="rounded=1;whiteSpace=wrap;html=1;fillColor=#f8cecc;strokeColor=#b85450;" parent="1" vertex="1">
          <mxGeometry x="200" y="220" width="120" height="60" as="geometry" />
        </mxCell>
        <mxCell id="2iOGKmFltwEdweQKYYfo-39" style="edgeStyle=orthogonalEdgeStyle;rounded=0;orthogonalLoop=1;jettySize=auto;html=1;exitX=1;exitY=0.5;exitDx=0;exitDy=0;" parent="1" source="2iOGKmFltwEdweQKYYfo-36" target="OAyQKX8aBzaskmU8yS5l-6" edge="1">
          <mxGeometry relative="1" as="geometry">
            <Array as="points">
              <mxPoint x="-370" y="282" />
              <mxPoint x="-370" y="-100" />
              <mxPoint x="540" y="-100" />
              <mxPoint x="540" y="200" />
            </Array>
          </mxGeometry>
        </mxCell>
        <mxCell id="2iOGKmFltwEdweQKYYfo-40" style="edgeStyle=orthogonalEdgeStyle;rounded=0;orthogonalLoop=1;jettySize=auto;html=1;entryX=0;entryY=0.5;entryDx=0;entryDy=0;" parent="1" source="2iOGKmFltwEdweQKYYfo-36" target="tJkLo8AYyS4Hzj5Davj_-1" edge="1">
          <mxGeometry relative="1" as="geometry" />
        </mxCell>
        <mxCell id="2iOGKmFltwEdweQKYYfo-36" value="schema:Product" style="shape=process;whiteSpace=wrap;html=1;backgroundOutline=1;" parent="1" vertex="1">
          <mxGeometry x="-590" y="252.5" width="120" height="60" as="geometry" />
        </mxCell>
        <mxCell id="2iOGKmFltwEdweQKYYfo-44" style="edgeStyle=orthogonalEdgeStyle;rounded=0;orthogonalLoop=1;jettySize=auto;html=1;endArrow=none;startFill=1;startArrow=classic;" parent="1" source="2iOGKmFltwEdweQKYYfo-43" target="2iOGKmFltwEdweQKYYfo-45" edge="1">
          <mxGeometry relative="1" as="geometry">
            <mxPoint x="-50" y="-360" as="targetPoint" />
          </mxGeometry>
        </mxCell>
        <mxCell id="2iOGKmFltwEdweQKYYfo-47" value="" style="edgeStyle=orthogonalEdgeStyle;rounded=0;orthogonalLoop=1;jettySize=auto;html=1;" parent="1" source="2iOGKmFltwEdweQKYYfo-43" target="2iOGKmFltwEdweQKYYfo-46" edge="1">
          <mxGeometry relative="1" as="geometry" />
        </mxCell>
        <mxCell id="2iOGKmFltwEdweQKYYfo-54" style="edgeStyle=orthogonalEdgeStyle;rounded=0;orthogonalLoop=1;jettySize=auto;html=1;entryX=0;entryY=0.5;entryDx=0;entryDy=0;fillColor=#d5e8d4;strokeColor=#82b366;" parent="1" source="2iOGKmFltwEdweQKYYfo-43" target="2iOGKmFltwEdweQKYYfo-45" edge="1">
          <mxGeometry relative="1" as="geometry">
            <Array as="points">
              <mxPoint x="-150" y="-410" />
              <mxPoint x="-150" y="-500" />
            </Array>
          </mxGeometry>
        </mxCell>
        <mxCell id="2iOGKmFltwEdweQKYYfo-57" value="hasMember" style="edgeLabel;html=1;align=center;verticalAlign=middle;resizable=0;points=[];" parent="2iOGKmFltwEdweQKYYfo-54" vertex="1" connectable="0">
          <mxGeometry x="0.0485" relative="1" as="geometry">
            <mxPoint as="offset" />
          </mxGeometry>
        </mxCell>
        <mxCell id="2iOGKmFltwEdweQKYYfo-43" value="CollectionEntity" style="shape=parallelogram;perimeter=parallelogramPerimeter;whiteSpace=wrap;html=1;fixedSize=1;" parent="1" vertex="1">
          <mxGeometry x="-117.5" y="-440" width="120" height="60" as="geometry" />
        </mxCell>
        <mxCell id="2iOGKmFltwEdweQKYYfo-45" value="owl:Thing" style="shape=process;whiteSpace=wrap;html=1;backgroundOutline=1;" parent="1" vertex="1">
          <mxGeometry x="-117.5" y="-530" width="120" height="60" as="geometry" />
        </mxCell>
        <mxCell id="2iOGKmFltwEdweQKYYfo-50" value="" style="edgeStyle=orthogonalEdgeStyle;rounded=0;orthogonalLoop=1;jettySize=auto;html=1;" parent="1" source="2iOGKmFltwEdweQKYYfo-46" target="2iOGKmFltwEdweQKYYfo-49" edge="1">
          <mxGeometry relative="1" as="geometry" />
        </mxCell>
        <mxCell id="2iOGKmFltwEdweQKYYfo-46" value="Set" style="shape=parallelogram;perimeter=parallelogramPerimeter;whiteSpace=wrap;html=1;fixedSize=1;" parent="1" vertex="1">
          <mxGeometry x="-117.5" y="-350" width="120" height="60" as="geometry" />
        </mxCell>
        <mxCell id="2iOGKmFltwEdweQKYYfo-48" value="&lt;div style=&quot;&quot;&gt;Ha le proprietà:&amp;nbsp;&lt;/div&gt;&lt;div&gt;hasMember: owl:Thing&lt;/div&gt;&lt;div&gt;size: integer&lt;/div&gt;" style="text;html=1;align=left;verticalAlign=middle;resizable=0;points=[];autosize=1;strokeColor=none;fillColor=none;" parent="1" vertex="1">
          <mxGeometry x="2.5" y="-440" width="140" height="60" as="geometry" />
        </mxCell>
        <mxCell id="2iOGKmFltwEdweQKYYfo-49" value="ProgramminLanguageSet" style="shape=parallelogram;perimeter=parallelogramPerimeter;whiteSpace=wrap;html=1;fixedSize=1;" parent="1" vertex="1">
          <mxGeometry x="-152.5" y="-260" width="190" height="60" as="geometry" />
        </mxCell>
        <mxCell id="2iOGKmFltwEdweQKYYfo-58" style="edgeStyle=orthogonalEdgeStyle;rounded=0;orthogonalLoop=1;jettySize=auto;html=1;entryX=0.405;entryY=0.061;entryDx=0;entryDy=0;entryPerimeter=0;fillColor=#d5e8d4;strokeColor=#82b366;" parent="1" source="2iOGKmFltwEdweQKYYfo-49" target="tJkLo8AYyS4Hzj5Davj_-1" edge="1">
          <mxGeometry relative="1" as="geometry">
            <Array as="points">
              <mxPoint x="-80" y="28" />
              <mxPoint x="-81" y="28" />
            </Array>
          </mxGeometry>
        </mxCell>
        <mxCell id="2iOGKmFltwEdweQKYYfo-59" value="hasMember" style="edgeLabel;html=1;align=center;verticalAlign=middle;resizable=0;points=[];" parent="2iOGKmFltwEdweQKYYfo-58" vertex="1" connectable="0">
          <mxGeometry x="-0.7718" relative="1" as="geometry">
            <mxPoint y="28" as="offset" />
          </mxGeometry>
        </mxCell>
        <mxCell id="2iOGKmFltwEdweQKYYfo-61" style="edgeStyle=orthogonalEdgeStyle;rounded=0;orthogonalLoop=1;jettySize=auto;html=1;entryX=0;entryY=0.25;entryDx=0;entryDy=0;fillColor=#d5e8d4;strokeColor=#82b366;startArrow=classic;startFill=1;" parent="1" source="2iOGKmFltwEdweQKYYfo-60" target="tJkLo8AYyS4Hzj5Davj_-1" edge="1">
          <mxGeometry relative="1" as="geometry">
            <mxPoint x="-240" y="240.00000000000023" as="targetPoint" />
          </mxGeometry>
        </mxCell>
        <mxCell id="2iOGKmFltwEdweQKYYfo-62" value="Creato da / creatore di" style="edgeLabel;html=1;align=center;verticalAlign=middle;resizable=0;points=[];" parent="2iOGKmFltwEdweQKYYfo-61" vertex="1" connectable="0">
          <mxGeometry x="-0.0565" y="1" relative="1" as="geometry">
            <mxPoint as="offset" />
          </mxGeometry>
        </mxCell>
        <mxCell id="2iOGKmFltwEdweQKYYfo-60" value="foaf:Agent" style="shape=process;whiteSpace=wrap;html=1;backgroundOutline=1;" parent="1" vertex="1">
          <mxGeometry x="-590" y="170" width="120" height="60" as="geometry" />
        </mxCell>
        <mxCell id="2iOGKmFltwEdweQKYYfo-63" style="edgeStyle=orthogonalEdgeStyle;rounded=0;orthogonalLoop=1;jettySize=auto;html=1;fillColor=#d5e8d4;strokeColor=#82b366;startArrow=classic;startFill=1;exitX=1;exitY=0.25;exitDx=0;exitDy=0;entryX=0.75;entryY=0;entryDx=0;entryDy=0;" parent="1" source="2iOGKmFltwEdweQKYYfo-60" target="OAyQKX8aBzaskmU8yS5l-6" edge="1">
          <mxGeometry relative="1" as="geometry">
            <mxPoint x="831" y="150" as="targetPoint" />
            <mxPoint x="-450" y="151" as="sourcePoint" />
            <Array as="points">
              <mxPoint x="-400" y="185" />
              <mxPoint x="-400" y="-140" />
              <mxPoint x="650" y="-140" />
            </Array>
          </mxGeometry>
        </mxCell>
        <mxCell id="2iOGKmFltwEdweQKYYfo-64" value="Creato da / creatore di" style="edgeLabel;html=1;align=center;verticalAlign=middle;resizable=0;points=[];" parent="2iOGKmFltwEdweQKYYfo-63" vertex="1" connectable="0">
          <mxGeometry x="-0.0565" y="1" relative="1" as="geometry">
            <mxPoint x="76" as="offset" />
          </mxGeometry>
        </mxCell>
        <mxCell id="2iOGKmFltwEdweQKYYfo-65" value="schema:SoftwareApplication" style="shape=process;whiteSpace=wrap;html=1;backgroundOutline=1;" parent="1" vertex="1">
          <mxGeometry x="-680" y="90" width="210" height="60" as="geometry" />
        </mxCell>
      </root>
    </mxGraphModel>
  </diagram>
</mxfile>
